<svg id="подъёмник" xmlns="http://www.w3.org/2000/svg" viewBox="0 0 500 500"><defs><style>.cls-1{fill:#fff;}</style></defs><path class="cls-1" d="M171.17,500c-3.34-5.8-2.12-7.78,4.9-7.78H296.5c-11-12.58-4.11-25.95-3.06-38.82,1-12.38,3.34-24.66,5.07-37,1.37-9.75,2.54-19.53,4.12-29.25,1-6.22-.75-8.84-7.1-8.86-22-.05-43.92.33-65.86-.15-12.33-.27-24.33-2.64-34.73-10.31a29.86,29.86,0,0,1-12.22-21.09c-1.39-11.48-1.58-23.11-2.47-34.66-1.36-17.69-3.3-35.35-4.16-53.06-.54-11-3.49-22.28,1.18-33.21,5.47-12.81,14.9-20.93,28.71-22.88,14.78-2.1,26.14,4.46,34.65,16.16q17.07,23.47,33.7,47.28c1.87,2.68,3.41,3.08,6.43,2.3,16.47-4.27,33-8.26,49.52-12.4,6.14-1.54,16.79,1.33,18.64,8.5,2.37,9.14-2,17.28-11.11,20.06C317.63,291,297.42,297,277.23,303.13c-5.38,1.63-10.12,1.58-14-3.39-5.88-7.49-12-14.77-18.09-22.09-1.59-1.91-3.37-3.66-6-6.45a50.18,50.18,0,0,0-.57,6.22c1.14,18.66,2.36,37.31,3.54,56,.21,3.42,1.74,4.67,5.37,4.64,20.83-.15,41.66-.38,62.48.19a52.75,52.75,0,0,1,19.28,4.46C336.84,346,340.54,353,339.9,361.4c-.89,11.87-2.34,23.71-3.69,35.55-1.27,11.08-2.79,22.14-4.08,33.23-2,16.82-3.59,33.69-5.89,50.47-.52,3.77-3.26,7.24-5.17,11.25,1.54.1,3.3.3,5.05.3q32.94,0,65.86,0c9.06,0,17.54-1.14,21.76-11.1.54-1.27,3.64-1.46,5.55-2.15.48,2,1.91,4.39,1.27,5.91-2.94,7-8,12-15.67,13.94A18.7,18.7,0,0,0,402,500Z"/><path class="cls-1" d="M462.84,6.76c-4.21.69-8.39,1.76-12.62,2-15.68.94-31.38,1.45-47.05,2.43-20.89,1.3-41.75,3-62.64,4.31-15.3,1-30.62,1.54-45.93,2.42-13.79.8-27.57,1.77-41.82,2.7V12.71c11.87-.83,23.75-1.7,35.64-2.47Q322.83,8,357.24,5.88C371.8,5,386.36,4.27,400.92,3.47S430.05,1.9,444.6,1.05a8.24,8.24,0,0,0,2.47-1h15.77Z"/><path class="cls-1" d="M37.16,27c3.25-.71,6.48-1.87,9.76-2.07,28-1.64,56-3.06,84.06-4.64Q158.15,18.77,185.3,17c8.57-.56,17.13-1.31,26.14-2v8c-6,.53-12,1.23-18.13,1.57-15.5.88-31,1.46-46.52,2.42-21.09,1.31-42.15,2.9-63.24,4.3-13.25.88-26.5,1.72-39.77,2.29-2.17.1-4.41-1.31-6.62-2Z"/><path class="cls-1" d="M273.43,383.28h7.88c-.79,2.33-1.48,4.34-2.3,6.75,2.08.3,3.88.15,5.25.85s3.73,2.69,3.5,3.41c-.53,1.63-2.66,4.19-3.65,4-10-2-11.89,5.21-14.89,11.89-8.51,18.95-17.33,37.76-26,56.51,5.22,6,4.84,7-2.94,8.54-1.94.39-8.07-2.46-9.1-4.23-3.52-6.1-3.34-6.46,3.16-7.5a3.56,3.56,0,0,0,2.21-1.86c9.63-20.67,19.18-41.37,29.21-63.08-10.11,0-19.38.43-28.59-.1-11.86-.7-24-.9-35.45-3.55-28.53-6.57-46.6-27.26-50.75-56.17a96.51,96.51,0,0,1-1.07-13.36c-.12-41.65,0-83.3-.23-125-.09-16.26-.93-32.52,3.56-48.4,5.4-19.09,17.27-32.11,36.34-38.27,4.58-1.47,9.12-3.11,13.75-4.39,14.75-4.07,21.52-14.78,22.94-28.95,1.23-12.26,1.08-24.65,1.5-37,.08-2.21,0-4.42,0-7h7.93c0,10.8.31,21.44-.11,32.05A132.61,132.61,0,0,1,233,87.21q-4.35,23.31-27.3,29.84a148.27,148.27,0,0,0-18.47,6.06c-15.6,6.76-24.32,19.27-27.28,35.63a144.6,144.6,0,0,0-2.29,25q-.32,71.19,0,142.4c.06,14.16,3.55,27.51,12.15,39.25,9.83,13.41,23.46,21.17,39.35,22.88,18.92,2,38.1,1.84,57.17,2,2.45,0,4.94-3.81,7.41-5.85Z"/><path class="cls-1" d="M207.15,141.87a25.94,25.94,0,1,1,.68,51.88,26.12,26.12,0,0,1-26.61-24.43C180.14,154.58,193.9,140.76,207.15,141.87Z"/><path class="cls-1" d="M296.18,332.59c5.11-11,9.89-22.26,15.64-33,1.35-2.52,6-3.28,10.1-3.88q-6.32,14-12.64,28a24.28,24.28,0,0,0-1.48,3C306.13,332.48,302.61,334.83,296.18,332.59Z"/><path class="cls-1" d="M221.92,10.23c6.28,0,11.69.14,17.09-.05,3.25-.11,4.2,1.25,4.14,4.31-.29,14.55,1.86,12.2-12,12.24-10.43,0-9.57,2-9.64-10C221.54,14.77,221.77,12.77,221.92,10.23Zm17,8.12c-3.38-2.31-5.32-4.66-6.83-4.4-1.75.29-3.13,2.85-4.67,4.43,1.45,1.41,2.83,3.85,4.36,3.95C233.53,22.44,235.4,20.45,238.93,18.35Z"/><path class="cls-1" d="M334,250.43c1.37-2.87,2.36-5.92,4.19-8.33.88-1.16,3.8-2,5-1.37s2.09,3.4,1.72,4.89C343.25,252.17,343.06,252.12,334,250.43Z"/></svg>