<svg id="еда" xmlns="http://www.w3.org/2000/svg" viewBox="0 0 500 500"><defs><style>.cls-1{fill:#fff;}</style></defs><path class="cls-1" d="M171.88,0a46.71,46.71,0,0,0-31.25,12,46.82,46.82,0,0,0-62.51,0A46.85,46.85,0,0,0,0,46.88v125c0,37.71,19.87,57.58,35.83,73.54,14.9,14.91,26.67,26.67,26.67,51.46V453.12a46.88,46.88,0,1,0,93.75,0V296.88c0-24.79,11.77-36.55,26.67-51.46,16-16,35.83-35.83,35.83-73.54v-125A46.93,46.93,0,0,0,171.88,0ZM187.5,171.88c0,24.78-11.77,36.54-26.67,51.45-16,16-35.83,35.83-35.83,73.55V453.12a15.63,15.63,0,1,1-31.25,0V296.88c0-37.72-19.87-57.59-35.83-73.55C43,208.42,31.25,196.66,31.25,171.88v-125a15.63,15.63,0,1,1,31.25,0v93.74a15.63,15.63,0,1,0,31.25,0V46.88a15.63,15.63,0,1,1,31.25,0v93.74a15.63,15.63,0,1,0,31.25,0V46.88a15.63,15.63,0,1,1,31.25,0Zm276.67,82.7c-14.9-14.91-26.67-26.67-26.67-51.46V46.88a46.88,46.88,0,1,0-93.75,0V203.12c0,24.79-11.77,36.55-26.67,51.46-16,16-35.83,35.83-35.83,73.54,0,7,1.23,171.88,109.37,171.88S500,335.14,500,328.12C500,290.41,480.13,270.54,464.17,254.58ZM390.62,468.75c-77,0-78.12-139.1-78.12-140.63,0-24.78,11.77-36.54,26.67-51.45,16-16,35.83-35.83,35.83-73.55V46.88a15.63,15.63,0,1,1,31.25,0V203.12c0,37.72,19.87,57.59,35.83,73.55,14.9,14.91,26.67,26.67,26.67,51.45C468.75,329.53,467.85,468.75,390.62,468.75Z"/></svg>