<svg id="лого" xmlns="http://www.w3.org/2000/svg" viewBox="0 0 500 500"><defs><style>.cls-1{fill:#fff;}</style></defs><path class="cls-1" d="M20.52,140.73v60.56H39V140.73H56.93v60.56H75.21V140.73H93v74.34H2.6V140.73Z"/><path class="cls-1" d="M150.12,183.52H121.93v17.77h33.29v13.78H104V140.73h51.31v13.83H121.93v15.68h28.19Z"/><path class="cls-1" d="M180.44,189.85v25.22H162.52V140.73h29.67a34.5,34.5,0,0,1,15.09,3.14,23.68,23.68,0,0,1,10.16,8.93A24.43,24.43,0,0,1,221,166q0,10.88-7.79,17.39t-21.37,6.51Zm0-13.84h11.75q5.2,0,7.94-2.6t2.73-7.36a12,12,0,0,0-2.81-8.32,10,10,0,0,0-7.66-3.17H180.44Z"/><path class="cls-1" d="M276.69,183.52H248.51v17.77H281.8v13.78H230.59V140.73H281.9v13.83H248.51v15.68h28.18Z"/><path class="cls-1" d="M339.24,154.56H306.92v60.51H289V140.73h50.24Z"/><path class="cls-1" d="M393.52,183.52H365.33v17.77h33.29v13.78H347.41V140.73h51.32v13.83h-33.4v15.68h28.19Z"/><path class="cls-1" d="M423.49,140.73v60.56H442V140.73H459.9v60.56h18.28V140.73H496v74.34H405.57V140.73Z"/><path class="cls-1" d="M27.69,320.27h44.1v19.49H2.35V234.66H27.69Z"/><path class="cls-1" d="M176,339.76H150.74V234.66H176Z"/><path class="cls-1" d="M300.94,311.18l20.93-76.52h28.3L314.8,339.76H287.08L252,234.66h28.08Z"/><path class="cls-1" d="M489.54,295.15H449.69v25.12h47.07v19.49H424.35V234.66H496.9v19.56H449.69v22.16h39.85Z"/></svg>