<svg id="гора" xmlns="http://www.w3.org/2000/svg" viewBox="0 0 500 500"><defs><style>.cls-1{fill:#fff;}</style></defs><path class="cls-1" d="M181.12,0c5.55,6.54,11.43,12.83,16.58,19.66q49.13,65.16,98,130.53c.92,1.21,1.78,2.46,3,4.19,7.22-9.88,14.22-19.42,21.19-29,1.2-1.65,2.1-3.58,3.53-5,10.38-10.19,12.88-22.5,12-36.69-1-16.19-.25-32.48-.22-48.73,0-7.27,3-10.27,10.19-10.29,15.05,0,30.1,0,45.15,0,4.26,0,7.7,1,9.52,5.31s-.44,7.17-3,10c-3.28,3.63-8.73,7-9.19,11-.42,3.64,4.52,7.91,7.12,11.89,1.21,1.85,3,3.51,3.59,5.54.84,2.87,2.07,6.72.84,8.83-1.36,2.37-5.23,4.46-8.09,4.58-11.78.5-23.59.21-35.39.21h-4.33c.72,10.38-2,20.25,5,30.22,46.89,66.89,93.19,134.19,139.68,201.36,1.06,1.54,2.09,3.09,3.14,4.64V330.6c-1.87,3.48-4.67,5.25-8.6,6.39-22.55,6.54-45,13.5-67.49,20.2-3.28,1-4.82,2-3.56,6,2,6.44,3,13.21,5,19.65,1.2,3.86.11,6.68-2.1,9.44-7.34,9.16-14.51,18.49-22.23,27.33-5.74,6.57-8.6,13.39-8.1,22.46.81,15,.22,30.09.22,45.15v5.16H376.28c0-22.06-.1-43.77.15-65.47,0-2.25,1.75-4.76,3.26-6.68,8.64-11,17.59-21.69,26.06-32.78,1.43-1.88,1.81-5.3,1.36-7.77-1.41-7.64-3.43-15.16-5.25-22.72-1.75-7.23-.27-9.82,6.94-12q26-7.77,52-15.56c7.18-2.17,14.31-4.47,22.06-6.9-2.43-3.55-4.41-6.43-6.32-9.23-10.33,1.74-20.36,3.34-30.35,5.13-30,5.35-60,10.9-90.05,16-3.82.65-4.76,1.75-4.7,5.35.19,12.31,0,24.63.08,37,0,4.95-2.27,8.08-7.12,9.2-21.09,4.83-42.2,9.6-63.28,14.45-12.12,2.79-24.21,5.71-36.39,8.58,0,16.56-.1,32.63.07,48.7,0,4.82-1.75,8-5.94,10.36q-19.35,10.75-38.53,21.82c-5.49,3.17-10.74,6.76-16.1,10.16h-1l-7.86-14.27c16.63-9.53,33.06-19.06,49.62-28.33,2.81-1.57,3.59-3.29,3.56-6.35-.16-15.4-.09-30.8-.07-46.19,0-7,1.61-9,8.41-10.58l96.83-22.57a12.92,12.92,0,0,0,1.53-.62c0-13.22,0-26.37,0-39.53,0-7.94,1.59-9.83,9.36-11.21q58.05-10.26,116.09-20.54a55.45,55.45,0,0,0,5.46-1.6L395.66,196.46c-4.13,4.47-7.93,8.82-12,12.92-5.46,5.54-9.43,5.53-14.88.12s-11.07-11.16-17.09-17.26c-2.26,2.21-4.29,4.19-6.29,6.18-6.41,6.41-12.79,12.86-19.23,19.24-5.49,5.43-9.46,5.45-14.9.07-6.21-6.12-12.35-12.33-18.53-18.48-1.18-1.18-2.45-2.26-4-3.7L218.55,292l-13-9.37L288.85,168l-40.4-53.83c-4.44,4.63-8.45,9-12.63,13.13-5.48,5.48-9.44,5.5-14.87,0-2.53-2.53-4.75-5.34-7.72-8.72-5.8,7.65-10.88,14.35-15.95,21.06-.2.27-.36.59-.56.86-6.89,9.47-11.92,9.49-18.83.13-5-6.82-10.13-13.58-15.4-20.64-8.69,10.73-17.05,21-25.33,31.32-4.69,5.86-9.09,6.27-14.5.94-7.3-7.2-14.48-14.52-22-22.07L13.39,250.72l-13-8.42v-2.05a15.73,15.73,0,0,0,2.13-2Q35.79,192.44,69,146.61q24.22-33.45,48.46-67L97.16,54.37,13.36,168.62.42,160.16v-2a14.61,14.61,0,0,0,2.17-2Q46.22,96.77,89.84,37.36c4.38-6,9.67-5.92,14.18-.24,7.61,9.57,15.32,19.07,23.34,29,.61-.86,1-1.42,1.41-2C142.56,45,156.31,25.79,170.22,6.69c1.85-2.53,4.51-4.47,6.8-6.69Zm5.76,125.6c.86-.45,1.06-.49,1.15-.61q8.37-10.92,16.74-21.85c4.39-5.71,8.94-6.14,14.08-.94,3.07,3.12,5.64,6.74,8.54,10.25l11.27-11.38L179.17,21.79,110.88,116.1l17.91,20.12c9.44-11.79,18.17-22.66,26.86-33.57,4.29-5.38,9.78-5.38,14,.13C175.36,110.32,181.06,117.9,186.88,125.6Zm199.3,57.19-43-62.1L299.4,180.9l20.14,20.25c7.7-7.71,15.76-15.8,23.85-23.88,6.38-6.37,10-6.39,16.37.06,5.36,5.43,10.61,11,16.12,16.68Zm-14-141.47H351.81V65.38H376.7C374.12,57.31,362.09,51.74,372.16,41.32Z"/><path class="cls-1" d="M46.06,291.2,29.18,309.3,17.81,297.42c5.16-5.13,10.06-11.19,16.1-15.75,11.58-8.77,16.38-19.74,13.85-34a30.6,30.6,0,0,1,0-4.91c-8.67,8.89-17.11,17.56-25.63,26.31L10,256.37c.48-.56,1.38-1.72,2.4-2.75Q30.2,235.82,48,218.05c6-5.93,9.74-6,15.64-.09Q82.9,237.11,102,256.25L90.18,267.6l-25-25.32-1.2.47c0,7.93-.13,15.86.14,23.77,0,1.37,1.67,2.83,2.83,4,8.94,8.94,17.94,17.82,27.24,27L81.06,308.86c-4.67-5.24-10.18-11.4-15.68-17.56l-1.36.83c0,7.79-.13,15.58.13,23.37,0,1.39,1.49,2.93,2.63,4.07C78.49,331.31,90.28,343,102,354.62L90.39,365.3,65.74,340.5l-1.6.76c0,8.2-.12,16.4.13,24.6,0,1.17,1.82,2.35,2.89,3.42,8.94,8.92,17.91,17.81,27,26.84L82.39,407.23,65.8,389.57l-1.77,1c0,5.18-.2,10.37.14,15.53.09,1.4,1.65,2.85,2.8,4,11.74,11.7,23.53,23.34,35.48,35.17l-12,11.56L64.11,430.09v62.4H48V431.8L21.93,458,9.49,445.44c10.71-10.71,21.15-21.53,32.05-31.85,4.55-4.3,7.3-8.65,6.25-15.06-.4-2.49-.06-5.1-.06-7.72L30.3,408.71,17.93,395.88c7.13-7.11,14.14-14.85,22-21.65,6.23-5.41,9.07-11.33,7.93-19.55-.6-4.32-.1-8.79-.1-13.67L22,367.55,10.12,354.31c5-5,10.85-10.72,16.64-16.47,2.67-2.65,5.32-5.32,8-8C49.17,315.44,50,313,46.06,291.2Z"/><path class="cls-1" d="M136.54,430.92,120,448.84l-12.2-13c2.87-2.4,6.58-5.33,10.09-8.49,2.92-2.63,5.21-6.12,8.44-8.21,14.13-9.18,12.55-22.89,11.26-37.3l-25.67,26.43L99.92,396c8.64-8.62,16.76-18,26.2-25.75,9.8-8.05,14-17.31,12-29.69a42.81,42.81,0,0,1-.06-7l-17.46,17.86-11.89-13.57c8.21-8.17,17.07-17.16,26.15-25.91a9.79,9.79,0,0,0,3.27-8.06c-.22-6.63-.07-13.26-.07-20.08L112.46,310l-12.73-14.1a16.48,16.48,0,0,0,4.25-2.56c11.58-11.4,23-22.95,34.53-34.42,5.74-5.71,9.61-5.75,15.27-.13,12.86,12.78,25.69,25.6,38.76,38.63l-12.2,10.24-24.06-24.84-1.8.91c0,8.19-.12,16.39.14,24.57,0,1.18,1.8,2.36,2.88,3.43,8.94,8.92,17.9,17.81,27,26.84l-11.68,11-16.7-17.49-1.74,1c0,7.92-.14,15.84.13,23.75.05,1.37,1.65,2.85,2.8,4,11.74,11.7,23.53,23.34,35.48,35.18l-12,11.56c-8.33-8.46-16.8-17.05-26.45-26.83,0,9.58-.14,17.51.14,25.43,0,1.37,1.68,2.83,2.83,4,8.94,8.94,17.94,17.82,27.21,27l-12.81,11.62L155.64,431l-1.18.77v60.62H138.3V431.86Z"/><path class="cls-1" d="M496.13,404.24l-11.24,11.87L468.08,398l-1.55.72c0,8.06-.11,16.14.13,24.2,0,1.2,1.62,2.47,2.68,3.53q13.59,13.51,27.29,27l-12,11.29-16.58-17.55-1.33.89v44.2H450.41V448.48l-17.65,18-12.05-13.59c8-8,16.63-16.74,25.52-25.18a11.55,11.55,0,0,0,4-9.8c-.34-6.28-.09-12.6-.09-19.55l-17.6,18.48L420.3,404.35c10.72-10.74,21.35-21.57,32.21-32.18,3.54-3.45,8-3.55,11.53-.07C474.9,382.71,485.52,393.58,496.13,404.24Z"/></svg>