<?xml version="1.0" encoding="utf-8"?>
<!-- Generator: Adobe Illustrator 26.0.3, SVG Export Plug-In . SVG Version: 6.00 Build 0)  -->
<svg version="1.1" id="Слой_2" xmlns="http://www.w3.org/2000/svg" xmlns:xlink="http://www.w3.org/1999/xlink" x="0px" y="0px"
	 viewBox="0 0 500 500" style="enable-background:new 0 0 500 500;" xml:space="preserve">
<style type="text/css">
	.st0{fill-rule:evenodd;clip-rule:evenodd;fill:#FFFFFF;}
</style>
<path id="crazy-weather" class="st0" d="M216.4,402.7c-2-4.1-7-5.7-11.1-3.7c-4.1,2-5.8,7-3.7,11.1l8.3,16.6
	c1.5,2.9,4.4,4.6,7.4,4.6c1.2,0,2.5-0.3,3.7-0.9c4.1-2,5.8-7,3.7-11.1L216.4,402.7z M216.4,452.5c-2-4.1-7-5.7-11.1-3.7
	c-4.1,2-5.8,7-3.7,11.1l8.3,16.6c1.5,2.9,4.4,4.6,7.4,4.6c1.2,0,2.5-0.3,3.7-0.9c4.1-2,5.8-7,3.7-11.1L216.4,452.5z M166.6,369.5
	c-2-4.1-7-5.7-11.1-3.7c-4.1,2-5.8,7-3.7,11.1l8.3,16.6c1.5,2.9,4.4,4.6,7.4,4.6c1.2,0,2.5-0.3,3.7-0.9c4.1-2,5.8-7,3.7-11.1
	L166.6,369.5z M166.6,419.3c-2-4.1-7-5.7-11.1-3.7c-4.1,2-5.8,7-3.7,11.1l8.3,16.6c1.5,2.9,4.4,4.6,7.4,4.6c1.2,0,2.5-0.3,3.7-0.9
	c4.1-2,5.8-7,3.7-11.1L166.6,419.3z M266.1,469.1c-2-4.1-7-5.7-11.1-3.7c-4.1,2-5.8,7-3.7,11.1l8.3,16.6c1.5,2.9,4.4,4.6,7.4,4.6
	c1.2,0,2.5-0.3,3.7-0.9c4.1-2,5.8-7,3.7-11.1L266.1,469.1z M166.6,469.1c-2-4.1-7-5.7-11.1-3.7c-4.1,2-5.8,7-3.7,11.1l8.3,16.6
	c1.5,2.9,4.4,4.6,7.4,4.6c1.2,0,2.5-0.3,3.7-0.9c4.1-2,5.8-7,3.7-11.1L166.6,469.1z M33.4,114.5l15.3,6.4c1,0.4,2.1,0.6,3.2,0.6
	c3.3,0,6.3-1.9,7.7-5.1c1.8-4.2-0.3-9.1-4.5-10.8l-15.3-6.4c-4.2-1.8-9.1,0.3-10.8,4.5C27.2,107.9,29.2,112.7,33.4,114.5L33.4,114.5
	z M200.4,58c1,0.4,2.1,0.6,3.2,0.6c3.3,0,6.3-1.9,7.7-5.1l6.3-15.3c1.8-4.2-0.2-9.1-4.5-10.8c-4.2-1.8-9.1,0.3-10.8,4.5L196,47.1
	C194.2,51.4,196.2,56.2,200.4,58L200.4,58z M107.1,53.5c1.3,3.2,4.4,5.1,7.7,5.1c1.1,0,2.1-0.2,3.2-0.6c4.2-1.7,6.2-6.6,4.5-10.8
	L116,31.8c-1.8-4.2-6.6-6.2-10.8-4.5c-4.2,1.8-6.2,6.6-4.5,10.8L107.1,53.5z M9.9,165.9l33.2,0c4.6,0,8.3-3.7,8.3-8.3
	c0-4.6-3.7-8.3-8.3-8.3l-33.2,0c-4.6,0-8.3,3.7-8.3,8.3C1.6,162.2,5.3,165.9,9.9,165.9L9.9,165.9z M71.2,81.4
	c1.6,1.6,3.7,2.4,5.9,2.4c2.1,0,4.2-0.8,5.9-2.4c3.2-3.2,3.2-8.5,0-11.7L59.5,46.2c-3.2-3.2-8.5-3.2-11.7,0c-3.2,3.2-3.2,8.5,0,11.7
	L71.2,81.4z M159.2,49.8c4.6,0,8.3-3.7,8.3-8.3V8.3c0-4.6-3.7-8.3-8.3-8.3c-4.6,0-8.3,3.7-8.3,8.3v33.2
	C150.9,46.1,154.6,49.8,159.2,49.8L159.2,49.8z M241.3,83.8c2.1,0,4.2-0.8,5.9-2.4l23.5-23.5c3.2-3.2,3.2-8.5,0-11.7
	c-3.2-3.2-8.5-3.2-11.7,0l-23.5,23.5c-3.2,3.2-3.2,8.5,0,11.7C237,83,239.2,83.8,241.3,83.8L241.3,83.8z M76.3,149
	c0.6,0.1,1.1,0.2,1.7,0.2c3.9,0,7.3-2.7,8.1-6.6c7.1-34.5,37.8-59.6,73.1-59.6c16.3,0,31.8,5.2,44.8,15c3.7,2.8,8.9,2,11.6-1.6
	c2.8-3.7,2-8.9-1.6-11.6c-15.9-12-34.9-18.3-54.8-18.3c-43.1,0-80.7,30.6-89.4,72.9C68.9,143.7,71.8,148.1,76.3,149L76.3,149z
	 M258.7,414.7h82.6c32,0,58.1-26,58.1-58.1c0-32-26-58.1-58.1-58.1s-58.1,26.1-58.1,58.1c0,4.6,3.7,8.3,8.3,8.3
	c4.6,0,8.3-3.7,8.3-8.3c0-22.9,18.6-41.5,41.5-41.5c22.9,0,41.5,18.6,41.5,41.5s-18.6,41.5-41.5,41.5h-82.6c-4.6,0-8.3,3.7-8.3,8.3
	C250.4,411,254.1,414.7,258.7,414.7L258.7,414.7z M482.4,315.2c0,21.3-8,41.5-22.6,56.9c-3.1,3.3-3,8.6,0.3,11.7
	c1.6,1.5,3.6,2.3,5.7,2.3c2.2,0,4.4-0.9,6-2.6c17.5-18.5,27.1-42.8,27.1-68.3c0-32.3-15.8-62.7-42.2-81.3c-3.7-2.7-8.9-1.8-11.6,2
	c-2.6,3.7-1.8,8.9,2,11.6C469.2,263,482.4,288.3,482.4,315.2L482.4,315.2z M449.2,398.1h-41.5c-4.6,0-8.3,3.7-8.3,8.3
	c0,4.6,3.7,8.3,8.3,8.3h41.5c18.3,0,33.2,14.9,33.2,33.2c0,18.3-14.9,33.2-33.2,33.2c-9,0-17.4-3.5-23.7-9.9
	c-3.2-3.3-8.5-3.3-11.7-0.1c-3.3,3.2-3.3,8.5-0.1,11.7c9.4,9.6,22.1,14.9,35.5,14.9c27.4,0,49.8-22.3,49.8-49.8
	C498.9,420.5,476.6,398.1,449.2,398.1L449.2,398.1z M366.2,431.3h-57.8c-4.6,0-8.3,3.7-8.3,8.3c0,4.6,3.7,8.3,8.3,8.3h57.8
	c9.1,0,16.6,7.4,16.6,16.6c0,9.1-7.4,16.6-16.6,16.6c-4.4,0-8.6-1.7-11.7-4.9c-3.2-3.2-8.5-3.2-11.7,0c-3.2,3.2-3.3,8.5,0,11.7
	c6.3,6.3,14.6,9.7,23.5,9.7c18.3,0,33.2-14.9,33.2-33.2C399.4,446.2,384.5,431.3,366.2,431.3L366.2,431.3z M76.2,398.1h-8.3
	c-27.4,0-49.8-22.3-49.8-49.8c0-27.4,22.3-49.8,49.8-49.8c4.6,0,8.3-3.7,8.3-8.3c0-4.6-3.7-8.3-8.3-8.3c-36.6,0-66.4,29.8-66.4,66.4
	s29.8,66.4,66.4,66.4h8.3c15.1,0,26,4.6,33.6,27.5c1.2,3.5,4.4,5.7,7.9,5.7c0.9,0,1.8-0.1,2.6-0.4c4.3-1.4,6.7-6.1,5.2-10.5
	C116.6,410.1,101.4,398.1,76.2,398.1L76.2,398.1z M189.9,141.8c-2.6,3.8-1.5,9,2.3,11.5c3.8,2.6,9,1.5,11.5-2.3
	c21.6-32.2,57.6-51.5,96.2-51.5c64,0,116.1,52.1,116.1,116.1c0,10.5-1.4,20.9-4.2,31c-1.2,4.4,1.4,9,5.8,10.2
	c0.7,0.2,1.5,0.3,2.2,0.3c3.6,0,7-2.4,8-6.1c3.2-11.5,4.8-23.4,4.8-35.4c0-73.2-59.5-132.7-132.7-132.7
	C255.8,82.9,214.7,104.9,189.9,141.8L189.9,141.8z M206.1,191.9c-3.3,3.2-8.6,3-11.7-0.3c-15.8-16.6-37.1-25.7-60.1-25.7
	c-45.7,0-82.9,37.2-82.9,82.9c0,5.1,0.5,10.2,1.4,15.1c0.8,4.5-2.1,8.8-6.6,9.7c-0.5,0.1-1,0.1-1.5,0.1c-3.9,0-7.4-2.8-8.1-6.8
	c-1.1-5.9-1.7-12-1.7-18.2c0-54.9,44.7-99.5,99.5-99.5c27.5,0,53.1,11,72.1,30.9C209.5,183.5,209.4,188.7,206.1,191.9L206.1,191.9z"
	/>
</svg>
