<svg id="подбор_тура" data-name="подбор тура" xmlns="http://www.w3.org/2000/svg" viewBox="0 0 500 500"><defs><style>.cls-1{fill:#fff;}</style></defs><path class="cls-1" d="M250,169.29a48.45,48.45,0,1,0-48.44-48.45A48.51,48.51,0,0,0,250,169.29Z"/><path class="cls-1" d="M243.39,286a11.63,11.63,0,0,0,6.8,2.2c8.4,0,19-8.56,34.41-23.58,12.52-12.19,24.72-25.69,26.88-28.31,32.17-39,48.56-88.66,43.83-132.85h0c-.39-3.67-.93-7.37-1.61-11-4.24-22.52-18-43.22-38.63-58.29-19.24-14-43.32-22.08-66.07-22.08h0c-31.61,0-60,12.9-79.92,36.33-20.28,23.84-28.92,55.93-23.71,88C154.82,194.7,190.54,249.21,243.39,286ZM250,52.78a68.07,68.07,0,1,1-68.06,68.06A68.14,68.14,0,0,1,250,52.78Z"/><path class="cls-1" d="M75.53,312.52a64,64,0,0,0-7.41,7.5,9.81,9.81,0,0,0,15.31,12.26,48.07,48.07,0,0,1,5.06-5,9.81,9.81,0,0,0-13-14.73Z"/><path class="cls-1" d="M277.8,334.85A9.81,9.81,0,1,0,269,352.4c5.75,2.88,11.13,5.35,16.44,7.55A9.8,9.8,0,1,0,293,341.84C288.11,339.81,283.14,337.52,277.8,334.85Z"/><path class="cls-1" d="M211.76,298.2a9.81,9.81,0,0,0-8.62,17.62c4.41,2.16,9.28,4.74,14.89,7.89a9.81,9.81,0,1,0,9.61-17.1C221.7,303.27,216.5,300.52,211.76,298.2Z"/><path class="cls-1" d="M151.23,284.72a137.2,137.2,0,0,0-18.66,1.74A9.81,9.81,0,0,0,134.15,306a9.68,9.68,0,0,0,1.6-.13,117.27,117.27,0,0,1,16-1.49,9.81,9.81,0,0,0-.5-19.61Z"/><path class="cls-1" d="M345.59,372.87a129.83,129.83,0,0,0,18.76-1.47,9.81,9.81,0,1,0-2.94-19.4,109.24,109.24,0,0,1-15.92,1.25,9.81,9.81,0,0,0,.05,19.62Z"/><path class="cls-1" d="M416.8,350.84a9.77,9.77,0,0,0,5.11-1.45c2.59-1.59,5.21-3.27,7.79-5a9.81,9.81,0,1,0-11-16.25c-2.34,1.58-4.72,3.11-7.06,4.55a9.81,9.81,0,0,0,5.14,18.17Z"/><path class="cls-1" d="M498.17,403,448.58,246.28a38.33,38.33,0,0,0-36.68-26.86H346.33a9.81,9.81,0,1,0,0,19.61h59l-63.07,58a9.81,9.81,0,1,0,13.28,14.44l70.93-65.26.14-.16a19.19,19.19,0,0,1,3.28,6.12l49.59,156.72a18.86,18.86,0,0,1-18,24.55H428.57l-36.93-41a9.81,9.81,0,0,0-14.57,13.14l25.09,27.82H117l51.77-72.91a9.8,9.8,0,0,0-16-11.35L92.9,433.47H38.51a18.87,18.87,0,0,1-18-24.55L70.13,252.2A18.77,18.77,0,0,1,88.1,239h65.58a9.81,9.81,0,0,0,0-19.61H88.1a38.31,38.31,0,0,0-36.67,26.86L1.83,403a38.47,38.47,0,0,0,36.68,50.08h423A38.47,38.47,0,0,0,498.17,403Z"/><path class="cls-1" d="M247.5,473.58H114.21a9.81,9.81,0,1,0,0,19.61H247.5a9.81,9.81,0,1,0,0-19.61Z"/><path class="cls-1" d="M310.27,473.58H288.69a9.81,9.81,0,0,0,0,19.61h21.58a9.81,9.81,0,1,0,0-19.61Z"/><path class="cls-1" d="M429.93,473.58H349.5a9.81,9.81,0,0,0,0,19.61h80.43a9.81,9.81,0,1,0,0-19.61Z"/></svg>