<svg id="трасса" xmlns="http://www.w3.org/2000/svg" viewBox="0 0 500 500"><defs><style>.cls-1{fill:#fff;}</style></defs><polygon class="cls-1" points="407.79 76.33 500 42.8 407.79 9.27 407.79 76.33"/><polygon class="cls-1" points="382.64 9.27 382.64 168.54 332.34 168.54 332.34 243.99 449.7 243.99 449.7 168.54 399.4 168.54 399.4 9.27 382.64 9.27"/><path class="cls-1" d="M253.88,250.43l50.3-41.92a8.38,8.38,0,0,0,1.07-11.8,7.73,7.73,0,0,0-1.07-1.07l-50.3-41.92L243.15,166.6l32.51,27.09H215a50.3,50.3,0,1,0,0,100.6h92.21a75.45,75.45,0,1,1,0,150.89H164.68V462H307.19a92.22,92.22,0,0,0,0-184.43H215a33.53,33.53,0,0,1,0-67.06h60.68l-32.51,27.09Z"/><path class="cls-1" d="M25.15,312.92a28.62,28.62,0,0,1,8.38-20.24V498.07H71.25V380.7h8.39V498.07h37.72V292.68a52.36,52.36,0,0,1,8.38,28.62v59.4h25.15V301a37.69,37.69,0,0,0-37.69-37.69H97.41a33.58,33.58,0,1,0-43.93,0H37.69A37.7,37.7,0,0,0,0,301H0V380.7H25.15Z"/></svg>