<svg id="инста" xmlns="http://www.w3.org/2000/svg" viewBox="0 0 500 500"><defs><style>.cls-1{fill:#fff;}</style></defs><g id="ig_instagram_insta_photo" data-name="ig instagram insta photo"><path class="cls-1" d="M340.09,196.26a20.18,20.18,0,0,0-11.56,26.1,1.21,1.21,0,0,1,.05.14A80.73,80.73,0,1,1,282,176.07a20.19,20.19,0,0,0,14.33-37.75,120.94,120.94,0,1,0,70.05,69.45,20.18,20.18,0,0,0-26.1-11.57Z"/><circle class="cls-1" cx="391.57" cy="109.05" r="20.19"/><path class="cls-1" d="M492.5,109.05A100.93,100.93,0,0,0,393.59,8.11h0A1557.15,1557.15,0,0,0,109,8.11,100.94,100.94,0,0,0,8,107.43,1854.91,1854.91,0,0,0,8,391.67a100.94,100.94,0,0,0,98.92,100.94h0c47.64,4.44,95.48,6.86,143.33,6.86s95.08-2.22,142.32-6.86a100.93,100.93,0,0,0,99.92-99.32A1756.19,1756.19,0,0,0,492.5,109.05ZM452.13,391.67a60.56,60.56,0,0,1-60.56,60.56h-2a1447.05,1447.05,0,0,1-280.6,0,60.56,60.56,0,0,1-60.59-60.54c0-.54,0-1.09,0-1.63a1866.83,1866.83,0,0,1,0-281,60.57,60.57,0,0,1,60.54-60.59c.61,0,1.23,0,1.84,0Q180.21,42.24,250.05,42t141.52,6.46A60.56,60.56,0,0,1,452.15,109c0,.54,0,1.09,0,1.63A1718.8,1718.8,0,0,1,452.13,391.67Z"/></g></svg>