<svg id="вк" xmlns="http://www.w3.org/2000/svg" viewBox="0 0 500 500"><defs><style>.cls-1{fill:#fff;}</style></defs><g id="vk_vkontakte_media_social" data-name="vk vkontakte media social"><path class="cls-1" d="M494.34,354.92a574.45,574.45,0,0,0-78.86-98.33,3.82,3.82,0,0,1,0-4.78,776,776,0,0,0,67.78-110.93,36.27,36.27,0,0,0-1.52-35.52A34.59,34.59,0,0,0,451.57,87.6H394.28a38.19,38.19,0,0,0-34.18,22.73,667.76,667.76,0,0,1-59.57,105.21V122a34.18,34.18,0,0,0-34-34.37h-84a26.73,26.73,0,0,0-21.39,42.2l7.64,10.69a35.08,35.08,0,0,1,6.3,20v73.33a498.8,498.8,0,0,1-59.57-120.49A38.21,38.21,0,0,0,79.42,87.6H32.64A33,33,0,0,0,.94,128.47C26.72,237.88,80.76,328.57,149.3,376.69a19.1,19.1,0,0,0,22.25-31.05l-.1-.07c-59.95-42-107.69-122-131.94-219.78h40.1a498.56,498.56,0,0,0,78.29,148,30.53,30.53,0,0,0,34.37,9.93,31.31,31.31,0,0,0,21-30V160.54a72.24,72.24,0,0,0-8.78-34.75h57.28V229.47a33.8,33.8,0,0,0,24.63,32.85,33.22,33.22,0,0,0,38.19-13.18,703.91,703.91,0,0,0,69.12-123.35h53.46a758.56,758.56,0,0,1-62.82,102.54,41.44,41.44,0,0,0,3.82,54A612.4,612.4,0,0,1,463,374h-64a267.28,267.28,0,0,0-77.72-82.3,31.31,31.31,0,0,0-33-2.48,32.27,32.27,0,0,0-17.57,29v45.45a10.11,10.11,0,0,1-9.54,10.5H244.78a19.1,19.1,0,1,0,0,38.19H261.2a48.11,48.11,0,0,0,47.73-48.5v-34a224.89,224.89,0,0,1,57.28,63.39,38.23,38.23,0,0,0,32.27,19.1H463a36.66,36.66,0,0,0,32.27-19.1A38.2,38.2,0,0,0,494.34,354.92Z"/></g></svg>