<svg id="ключ" xmlns="http://www.w3.org/2000/svg" viewBox="0 0 500 500"><defs><style>.cls-1{fill:#fff;}</style></defs><g id="key_open" data-name="key open"><path class="cls-1" d="M126.9,494.78a8.08,8.08,0,0,1-.85,0l-96.63-9.66-.36,0L7.53,482.88a5.56,5.56,0,0,1-.91-.14h0a8.43,8.43,0,0,1-4.47-2.56v0h0l0,0h0v0h0A8.21,8.21,0,0,1,.74,478h0v0h0a8.55,8.55,0,0,1-.7-4l6.32-97.08a8.45,8.45,0,0,1,2.45-5.4L184.13,197.24A158.68,158.68,0,0,1,212.91,70.8,8.38,8.38,0,1,1,226.3,80.87,142,142,0,0,0,201.46,198.1a8.42,8.42,0,0,1-2.26,7.81L22.85,381.14,17.27,467l9.53,1L215.74,279a8.39,8.39,0,0,0,0-11.85,8.59,8.59,0,0,0-11.85,0l-152,152a8.38,8.38,0,0,1-11.85-11.85l152-152a25.19,25.19,0,0,1,35.55,0,25.18,25.18,0,0,1,0,35.56L48.35,470.12l71.13,7.11,5-45.08a8.35,8.35,0,0,1,2.41-5l41.48-41.5a8.38,8.38,0,0,1,5.93-2.45h32.08l79.87-79.87a8.35,8.35,0,0,1,8.6-2c51.68,17.3,107.69,4.26,146.1-34.15,55.52-55.54,55.52-145.94,0-201.46C391.07,15.83,311,10.15,254.79,52.45a8.38,8.38,0,0,1-10.08-13.39C307.64-8.25,397.08-1.87,452.82,53.87,514.9,116,514.9,216.93,452.82,279a158.07,158.07,0,0,1-158.28,39.77l-78.72,78.72a8.37,8.37,0,0,1-5.93,2.44H177.81l-36.93,37-5.6,50.41A8.51,8.51,0,0,1,126.9,494.78ZM387.58,177.65a58.57,58.57,0,0,1-41.48-17.13h0a58.77,58.77,0,1,1,41.48,17.13Zm-29.63-29a41.9,41.9,0,1,0,0-59.26,42,42,0,0,0,0,59.26Z"/><path class="cls-1" d="M29.92,485.09A8.37,8.37,0,0,1,24,470.8L215.74,279a8.38,8.38,0,0,0-11.85-11.85l-152,152a8.38,8.38,0,0,1-11.85-11.85l152-152a25.19,25.19,0,0,1,35.55,0,25.18,25.18,0,0,1,0,35.56L35.85,482.63A8.37,8.37,0,0,1,29.92,485.09Z"/><circle class="cls-1" cx="223.48" cy="15.01" r="8.38"/><circle class="cls-1" cx="491.62" cy="283.15" r="8.38"/><path class="cls-1" d="M340.79,366.94a204.31,204.31,0,0,1-28.42-2,8.38,8.38,0,1,1,2.35-16.59A185.9,185.9,0,0,0,462.88,304,8.38,8.38,0,0,1,474,316.53,200.87,200.87,0,0,1,340.79,366.94Z"/><path class="cls-1" d="M150,201.48a8.39,8.39,0,0,1-8.28-7.2,204.38,204.38,0,0,1-2-28.44A200.44,200.44,0,0,1,192.53,30,8.37,8.37,0,1,1,204.86,41.3a183.78,183.78,0,0,0-48.41,124.54,189.26,189.26,0,0,0,1.82,26.09,8.36,8.36,0,0,1-7.12,9.47A9.51,9.51,0,0,1,150,201.48Z"/></g></svg>