<svg id="ручка" xmlns="http://www.w3.org/2000/svg" viewBox="0 0 500 500"><defs><style>.cls-1{fill:#fff;}</style></defs><path class="cls-1" d="M16.76,466.62A16.67,16.67,0,0,1,0,450.06a17.87,17.87,0,0,1,.1-1.94L12.93,331.48a16.69,16.69,0,0,1,4.83-9.83L290.38,49A53.32,53.32,0,0,1,365.79,49l.07.08,51.82,51.82a53.32,53.32,0,0,1,.08,75.41l-.08.07L145.24,448.79a16.69,16.69,0,0,1-9.83,4.83L18.76,466.45ZM133.41,437ZM45.59,340.81l-10,90.32,90.32-10L394.19,152.85a20,20,0,0,0,.05-28.28l-.05,0-52-52a20,20,0,0,0-28.28,0l-.05,0Z"/><path class="cls-1" d="M366.69,220.17a16.69,16.69,0,0,1-11.83-4.83L251.38,111.52a16.73,16.73,0,0,1,23.67-23.66L378.86,191.67a16.66,16.66,0,0,1,.09,23.57l-.09.1A16.7,16.7,0,0,1,366.69,220.17Z"/><rect class="cls-1" x="106.66" y="251.72" width="183.46" height="33.33" transform="translate(-131.67 218.89) rotate(-45)"/><path class="cls-1" d="M483.34,466.62H216.72a16.67,16.67,0,0,1,0-33.33H483.34a16.67,16.67,0,0,1,0,33.33Z"/></svg>